<svg width="14" height="10" viewBox="0 0 14 10" fill="none" xmlns="http://www.w3.org/2000/svg">
<path d="M4.75004 8.15001L2.12504 5.52501C2.0564 5.45553 1.97465 5.40036 1.88453 5.36271C1.79441 5.32506 1.69771 5.30568 1.60004 5.30568C1.50237 5.30568 1.40568 5.32506 1.31556 5.36271C1.22544 5.40036 1.14368 5.45553 1.07504 5.52501C1.00556 5.59365 0.950399 5.6754 0.912749 5.76552C0.8751 5.85564 0.855713 5.95234 0.855713 6.05001C0.855713 6.14767 0.8751 6.24437 0.912749 6.33449C0.950399 6.42461 1.00556 6.50636 1.07504 6.57501L4.21754 9.71751C4.51004 10.01 4.98254 10.01 5.27504 9.71751L13.225 1.77501C13.2945 1.70636 13.3497 1.62461 13.3873 1.53449C13.425 1.44437 13.4444 1.34767 13.4444 1.25001C13.4444 1.15234 13.425 1.05564 13.3873 0.965519C13.3497 0.875399 13.2945 0.793648 13.225 0.725006C13.1564 0.655526 13.0746 0.600362 12.9845 0.562713C12.8944 0.525063 12.7977 0.505676 12.7 0.505676C12.6024 0.505676 12.5057 0.525063 12.4156 0.562713C12.3254 0.600362 12.2437 0.655526 12.175 0.725006L4.75004 8.15001Z" fill="white"/>
</svg>
