<svg width="247" height="30" viewBox="0 0 247 30" fill="none" xmlns="http://www.w3.org/2000/svg">
<path d="M26.4705 30L17.647 23.5294L21.7646 20.5883L26.4705 30Z" fill="#6180F2"/>
<path d="M12.9412 11.1765L15.8824 0L19.4118 11.1765H32.9412L7.05882 30L10 18.8235L0 11.1765H12.9412Z" fill="#6180F2"/>
<path d="M79.4705 30L70.647 23.5294L74.7646 20.5883L79.4705 30Z" fill="#6180F2"/>
<path d="M65.9412 11.1765L68.8824 0L72.4118 11.1765H85.9412L60.0588 30L63 18.8235L53 11.1765H65.9412Z" fill="#6180F2"/>
<path d="M133.471 30L124.647 23.5294L128.765 20.5883L133.471 30Z" fill="#6180F2"/>
<path d="M119.941 11.1765L122.882 0L126.412 11.1765H139.941L114.059 30L117 18.8235L107 11.1765H119.941Z" fill="#6180F2"/>
<path d="M186.471 30L177.647 23.5294L181.765 20.5883L186.471 30Z" fill="#6180F2"/>
<path d="M172.941 11.1765L175.882 0L179.412 11.1765H192.941L167.059 30L170 18.8235L160 11.1765H172.941Z" fill="#6180F2"/>
<path d="M240.471 30L231.647 23.5294L235.765 20.5883L240.471 30Z" fill="#6180F2"/>
<path d="M226.941 11.1765L229.882 0L233.412 11.1765H246.941L221.059 30L224 18.8235L214 11.1765H226.941Z" fill="#6180F2"/>
</svg>
